<svg width="24" height="24" viewBox="0 0 24 24" fill="none" xmlns="http://www.w3.org/2000/svg">
<path d="M6 12H4C2.89543 12 2 12.8954 2 14V19C2 20.1046 2.89543 21 4 21C5.10457 21 6 20.1046 6 19M6 12H8.65357C8.88282 12 9.11036 12.0394 9.32625 12.1165L14.6727 14.026C15.4687 14.3102 16 15.0642 16 15.9094V17M6 12V19M6 19L11.7164 20.7864C13.2062 21.2519 14.7996 21.2715 16.3004 20.8427L19.9664 19.7953C20.5782 19.6205 21 19.0613 21 18.4251C21 17.638 20.362 17 19.5749 17H13.698C13.5663 17 13.435 16.987 13.3058 16.9612L11 16.5M20.1864 7.80857C21.2712 6.72247 21.2712 4.96157 20.1864 3.87548C19.324 3.01204 18.283 2.74766 17.2326 3.2608C16.8157 3.46447 16.2691 3.87548 16 4.41236C15.7309 3.87548 15.1843 3.46447 14.7674 3.2608C13.717 2.74766 12.676 3.01204 11.8136 3.87548C10.7288 4.96157 10.7288 6.72247 11.8136 7.80857L15.2925 11.2916C15.6831 11.6827 16.3169 11.6827 16.7075 11.2916L20.1864 7.80857Z" stroke="#FBFFF5" stroke-width="1.5" stroke-linecap="round" stroke-linejoin="round"/>
</svg>
